<svg xmlns="http://www.w3.org/2000/svg" width="124.463" height="200" viewBox="0 0 124.463 200"><path d="M25.751,200A25.78,25.78,0,0,1,0,174.249V25.751A25.78,25.78,0,0,1,25.751,0H98.713a25.78,25.78,0,0,1,25.751,25.751v148.5A25.78,25.78,0,0,1,98.713,200ZM8.584,174.249a17.167,17.167,0,0,0,17.167,17.167H98.713a17.167,17.167,0,0,0,17.167-17.167v-3.863H8.584Zm0-12.447h107.3V38.2H8.584Zm0-136.051v3.863h107.3V25.751A17.167,17.167,0,0,0,98.713,8.584H25.751A17.167,17.167,0,0,0,8.584,25.751ZM81.6,133.047V70.77h26.19v62.277Zm8.584-8.584h9.022V79.354H90.183Zm-41.266,8.584V87.414h26.19v45.633Zm8.584-8.584h9.022V96H57.5Zm-41.193,8.584v-29.6H42.5v29.6Zm8.584-8.584h9.022V112.033H24.893ZM54.507,23.605a4.292,4.292,0,1,1,0-8.584H69.1a4.292,4.292,0,0,1,0,8.584Z"/></svg>