<svg xmlns="http://www.w3.org/2000/svg" width="200" height="158.491" viewBox="0 0 200 158.491"><path d="M53.585,158.491a7.547,7.547,0,0,1-7.547-7.548v-4.528a7.547,7.547,0,0,1,7.547-7.547H64.906v-9.812H7.547A7.547,7.547,0,0,1,0,121.51V7.547A7.547,7.547,0,0,1,7.547,0H192.453A7.547,7.547,0,0,1,200,7.547V121.51a7.547,7.547,0,0,1-7.547,7.547H135.095v9.812h11.321a7.547,7.547,0,0,1,7.547,7.547v4.528a7.548,7.548,0,0,1-7.547,7.548Zm0-7.548h92.831v-4.528H53.585Zm18.868-12.075h55.094v-9.812H72.453ZM7.547,121.51H192.453V108.3H7.547Zm0-20.755H192.453V7.547H7.547ZM65.983,80.786,52.414,63.076,38.845,80.786a3.774,3.774,0,1,1-5.991-4.59L49.419,54.577a3.773,3.773,0,0,1,5.991,0l13.569,17.71,26.99-35.226a3.773,3.773,0,0,1,5.991,0L128.884,72.2l32.149-43.82a3.773,3.773,0,1,1,6.085,4.465L131.992,80.723a3.774,3.774,0,0,1-6.038.063L98.964,45.56,71.974,80.786a3.773,3.773,0,0,1-5.991,0Z"/></svg>