<svg xmlns="http://www.w3.org/2000/svg" width="200" height="186.239" viewBox="0 0 200 186.239"><path d="M9.174,186.239A9.175,9.175,0,0,1,0,177.064V143.119a9.175,9.175,0,0,1,9.174-9.174H55.964V119.266H9.174A9.174,9.174,0,0,1,0,110.092V76.147a9.175,9.175,0,0,1,9.174-9.174H55.964V52.293H9.174A9.174,9.174,0,0,1,0,43.119V9.174A9.175,9.175,0,0,1,9.174,0H190.826A9.174,9.174,0,0,1,200,9.174V43.119a9.174,9.174,0,0,1-9.174,9.174H144.037V66.972h46.788A9.174,9.174,0,0,1,200,76.147v33.945a9.174,9.174,0,0,1-9.174,9.174H144.037v14.679h46.788A9.174,9.174,0,0,1,200,143.119v33.945a9.174,9.174,0,0,1-9.174,9.175Zm0-9.175H190.826V143.119H9.174Zm125.689-43.119V119.266H65.138v14.679ZM9.174,110.092H190.826V76.147H9.174ZM134.863,66.972V52.293H65.138V66.972ZM9.174,43.119H190.826V9.174H9.174ZM159.633,160.55a7.34,7.34,0,1,1,7.34,7.34A7.339,7.339,0,0,1,159.633,160.55Zm-130.7,4.588v-9.174H57.37v9.174Zm130.7-71.56a7.34,7.34,0,1,1,7.34,7.34A7.34,7.34,0,0,1,159.633,93.578ZM28.93,97.706V88.532H57.37v9.174Zm130.7-71.1a7.34,7.34,0,1,1,7.34,7.34A7.34,7.34,0,0,1,159.633,26.605ZM28.93,31.193V22.019H57.37v9.174Z"/></svg>