<svg xmlns="http://www.w3.org/2000/svg" width="200" height="180.317" viewBox="0 0 200 180.317"><path d="M53.585,180.317a7.556,7.556,0,0,1-7.547-7.548v-4.528a7.555,7.555,0,0,1,7.547-7.547H64.906v-9.812H7.547A7.556,7.556,0,0,1,0,143.335V29.373a7.555,7.555,0,0,1,7.547-7.547H37.736v7.547H7.547V122.58H192.453V29.373H161.51V21.826h30.943A7.555,7.555,0,0,1,200,29.373V143.335a7.556,7.556,0,0,1-7.547,7.547H135.095v9.812h11.321a7.555,7.555,0,0,1,7.547,7.547v4.528a7.556,7.556,0,0,1-7.547,7.548Zm0-7.548h92.831v-4.528H53.585Zm18.868-12.075h55.094v-9.812H72.453ZM7.547,143.335H192.453V130.127H7.547Zm61-72.391A22.6,22.6,0,0,1,66.324,25.86a32.487,32.487,0,0,1,62.091-5.124,25.105,25.105,0,0,1-.206,50.209Zm-14.958-22.6A15,15,0,0,0,68.543,63.4h59.666a17.558,17.558,0,1,0-5.373-34.267A24.933,24.933,0,0,0,73.2,32.462q0,.8.05,1.6a14.957,14.957,0,0,0-19.662,14.29Z"/></svg>