<svg xmlns="http://www.w3.org/2000/svg" width="200" height="181.49" viewBox="0 0 200 181.49">
  <path id="ico_site" d="M2732,241.51a15.556,15.556,0,0,0-15.442,15.442V407.56A15.556,15.556,0,0,0,2732,423h169.116a15.556,15.556,0,0,0,15.442-15.442V256.952a15.556,15.556,0,0,0-15.442-15.442Zm6.4,6.161a6.246,6.246,0,1,1-6.247,6.246,6.246,6.246,0,0,1,6.247-6.246Zm20.647,0a6.246,6.246,0,1,1-6.247,6.246,6.246,6.246,0,0,1,6.247-6.246Zm20.647,0a6.246,6.246,0,1,1-6.247,6.246,6.246,6.246,0,0,1,6.247-6.246Zm-57.123,18.165h187.712l.386,141.724c.041.6-7.425,8.66-7.848,9.083a2.07,2.07,0,0,1-1.6.6l-169.221-.6h-1.892l-1.835-.323-1.45-.754-1.506-.992-1.01-1.257-.727-1.263-.624-2.295v-2.2Zm110.914,31.4v37.807h49.238V297.241Zm-81.831,4.864v8.206h64.624v-8.206Zm0,25.644v8.206h64.624V327.75Zm0,25.645V361.6H2880.9v-8.206Zm0,25.644v8.206H2880.9v-8.206Z" transform="translate(-2716.558 -241.51)"/>
</svg>
